# xmcd CD database file
# Copyright (C) 1993-1998 Ti Kan
#
# Track frame offsets:
#	150
#	8627
#	21360
#	32725
#	49827
#	67935
#	79662
#	93347
#	108152
#	126307
#
# Disc length: 1919 seconds
#
# Revision: 1
# Processed by: cddbd v1.4b41PL1 Copyright (c) Steve Scherf et al.
# Submitted via: CDValet v3.31 - Copyright (c) 1997 Greg Leichner
#
DISCID=74077d0a
DTITLE=David Allan Coe - Granny's Off Her Rocker
DYEAR=1900
DGENRE=
TTITLE0=Granny's Off Her Rocker
TTITLE1=Rings Around Rosie
TTITLE2=I'd Swear I Was In Heaven
TTITLE3=She's Gone For Good This Time
TTITLE4=The Walls In This House Are Too Thin
TTITLE5=Drink Canada Dry
TTITLE6=Your Memory Is Still Burning In My Mind
TTITLE7=I Can't Get Over You Getting Over Me
TTITLE8=The Matador
TTITLE9=Things Look So Different From The Sky
EXTD=1993 Tanya Montana Music - BMI\nDAC contact/fan club: P.O.
EXTD=Box 1387\nGoodlettsville, TN 37070
EXTT0=
EXTT1=
EXTT2=
EXTT3=
EXTT4=
EXTT5=
EXTT6=
EXTT7=
EXTT8=
EXTT9=
PLAYORDER=
